<svg width="120" height="120" viewBox="0 0 120 120" fill="none" xmlns="http://www.w3.org/2000/svg">
  <circle cx="60" cy="60" r="58" fill="#FFFFFF" stroke="#1A3A6B" stroke-width="4"/>
  <circle cx="60" cy="60" r="48" fill="#E8F0FB"/>
  <path d="M60 24L70 42H50L60 24Z" fill="#E53935"/>
  <path d="M34 52C34 40.9543 42.9543 32 54 32H66C77.0457 32 86 40.9543 86 52V78C86 84.6274 80.6274 90 74 90H46C39.3726 90 34 84.6274 34 78V52Z" fill="#1A3A6B"/>
  <rect x="43" y="45" width="34" height="30" rx="4" fill="#FFFFFF"/>
  <path d="M43 72H77V78C77 80.2091 75.2091 82 73 82H47C44.7909 82 43 80.2091 43 78V72Z" fill="#0EA5E9"/>
  <path d="M50 52H70" stroke="#1A3A6B" stroke-width="3" stroke-linecap="round"/>
  <path d="M60 46V58" stroke="#1A3A6B" stroke-width="3" stroke-linecap="round"/>
  <text x="60" y="107" text-anchor="middle" font-size="10" font-family="Arial, sans-serif" fill="#1A3A6B">HCM-UTE</text>
</svg>
